<svg width="82" height="71" viewBox="0 0 82 71" fill="none" xmlns="http://www.w3.org/2000/svg">
<mask id="path-1-outside-1_907_3388" maskUnits="userSpaceOnUse" x="-1" y="0" width="83" height="71" fill="black">
<rect fill="white" x="-1" width="83" height="71"/>
<path d="M79.2982 3.35226C80.2381 3.35216 81 2.82562 81 2.17613C81 1.52657 80.2379 1 79.2979 1V2.17613C79.2979 1 79.2986 1 79.2979 1L79.287 1.00001L79.2607 1.00006L79.1625 1.00045C79.077 1.00089 78.9519 1.00176 78.7891 1.00349C78.4634 1.00693 77.987 1.01379 77.3757 1.02741C76.1534 1.05466 74.3909 1.10901 72.2161 1.21745C67.869 1.43421 61.8622 1.86772 55.2225 2.73569C42.0231 4.4612 25.9892 7.94454 15.6828 15.066C5.31324 22.2311 3.79587 29.9693 4.91484 35.897C5.47097 38.8431 6.67401 41.3349 7.73623 43.0901C8.26821 43.9691 8.76743 44.6675 9.13759 45.1507C9.32276 45.3923 9.47591 45.5805 9.58509 45.7108C9.63969 45.776 9.68332 45.8267 9.7145 45.8625L9.75174 45.9048L9.76302 45.9174L9.76676 45.9216C9.76713 45.922 9.76887 45.924 10.2043 45.7362L9.76921 45.9243C9.83907 46.0016 9.91979 46.0713 10.0091 46.1331C8.81664 48.5688 7.72314 50.9969 6.74279 53.3C4.96048 57.4873 3.53528 61.3034 2.55564 64.0726C2.06568 65.4576 1.68684 66.5816 1.4302 67.3603C1.30187 67.7497 1.20407 68.0528 1.13819 68.2591L1.06347 68.4947L1.04438 68.5556L1.03816 68.5755C1.03806 68.5758 1.03764 68.5772 2.70199 68.8236L1.03816 68.5755C0.84119 69.2107 1.42615 69.8375 2.34534 69.9736C3.26454 70.1097 4.16937 69.7052 4.36634 69.0701L4.37202 69.0518L4.39003 68.9944L4.46249 68.766C4.52681 68.5646 4.62294 68.2666 4.74949 67.8826C5.0026 67.1146 5.37731 66.0027 5.86253 64.6311C6.83325 61.8872 8.24493 58.1075 10.0087 53.9638C13.5566 45.6287 18.4622 35.9869 23.9764 30.2716C29.4817 24.5657 36.3728 20.7531 41.9021 18.3652C44.6641 17.1724 47.0769 16.3392 48.7907 15.8063C49.6472 15.54 50.3279 15.3491 50.7889 15.226C51.0194 15.1644 51.1949 15.1199 51.3098 15.0914L51.4361 15.0606L51.4638 15.054L51.4682 15.053C52.3592 14.8473 52.841 14.1814 52.5438 13.5655C52.2466 12.9493 51.2826 12.6163 50.3908 12.8217L50.8841 13.8443C50.3907 12.8217 50.3914 12.8215 50.3908 12.8217L50.3832 12.8234L50.3695 12.8266L50.3237 12.8375C50.285 12.8467 50.2304 12.8599 50.1604 12.8773C50.0205 12.912 49.8192 12.9631 49.562 13.0318C49.0479 13.169 48.3102 13.3763 47.3937 13.6613C45.5613 14.231 43.0095 15.113 40.0978 16.3705C34.2795 18.8832 26.9863 22.9115 21.1439 28.9668C17.5795 32.6612 14.3174 37.8172 11.5105 43.1689C11.3119 42.8775 11.0979 42.5477 10.8769 42.1825C9.90014 40.5686 8.7982 38.2823 8.29051 35.5928C7.28181 30.2492 8.60132 23.2858 18.09 16.7293C27.6418 10.1293 42.8136 6.75184 55.8554 5.04696C62.3363 4.19974 68.2089 3.77565 72.4612 3.56361C74.5861 3.45766 76.3032 3.40481 77.4855 3.37845C78.0766 3.36528 78.5338 3.35873 78.8412 3.35548C78.9949 3.35385 79.1111 3.35305 79.1879 3.35265L79.2732 3.35231L79.2932 3.35227L79.2982 3.35226Z"/>
<path d="M76.9617 6.93262C77.8602 7.12365 78.3644 7.78179 78.088 8.40263L76.4611 8.05675C78.088 8.40263 78.0881 8.40229 78.088 8.40263L78.0854 8.40845L78.0787 8.42348L78.0529 8.48074L77.9527 8.70051C77.8645 8.89249 77.734 9.17368 77.5632 9.53354C77.2216 10.2532 76.7188 11.2879 76.0712 12.5531C74.7766 15.0824 72.9007 18.5392 70.5761 22.2459C68.2534 25.9496 65.4708 29.922 62.3588 33.4748C59.2612 37.0111 55.7691 40.2112 51.9925 42.2989C44.5485 46.4138 37.0621 47.4572 31.4256 47.4572C28.6163 47.4572 26.2713 47.1985 24.619 46.9375C23.792 46.8069 23.1359 46.6753 22.6787 46.5743C22.45 46.5237 22.2709 46.4807 22.1447 46.4492C22.0816 46.4334 22.0317 46.4206 21.9955 46.411L21.9514 46.3993L21.9372 46.3954L21.932 46.394C21.9311 46.3938 21.9281 46.3929 22.5603 45.3009L21.9281 46.3929C21.0553 46.1517 20.6308 45.4672 20.9799 44.8641C21.3286 44.2618 22.317 43.9685 23.1889 44.208L23.2074 44.2129L23.3014 44.2369C23.3899 44.259 23.5294 44.2926 23.7163 44.3339C24.0902 44.4166 24.6531 44.53 25.3775 44.6444C26.828 44.8735 28.9157 45.1049 31.4256 45.1049C36.4274 45.1049 43.1253 44.1881 49.8658 40.4621C53.1814 38.6293 56.427 35.7038 59.4464 32.2568C62.4513 28.8263 65.1652 24.9578 67.4525 21.3106C69.7378 17.6666 71.5853 14.2626 72.8617 11.7688C73.4996 10.5225 73.994 9.50509 74.3285 8.80051C74.4956 8.44826 74.6228 8.17431 74.7078 7.98918L74.8034 7.77943L74.827 7.72701L74.834 7.71144C75.1105 7.09061 76.0632 6.7416 76.9617 6.93262Z"/>
<path d="M56.1098 30.7235C56.9925 29.8291 56.6587 28.6096 55.3642 27.9997C54.0698 27.3897 52.3048 27.6204 51.4221 28.5148C47.094 32.9006 43.95 35.195 41.0523 36.3814C38.3151 37.5022 35.5165 37.7466 31.3426 37.4691C29.783 37.3654 28.3971 38.1549 28.247 39.2325C28.097 40.3102 29.2396 41.2678 30.7992 41.3715C35.5881 41.6899 39.7624 41.4666 43.9447 39.7542C47.9665 38.1075 51.6887 35.2035 56.1098 30.7235Z"/>
</mask>
<path d="M79.2982 3.35226C80.2381 3.35216 81 2.82562 81 2.17613C81 1.52657 80.2379 1 79.2979 1V2.17613C79.2979 1 79.2986 1 79.2979 1L79.287 1.00001L79.2607 1.00006L79.1625 1.00045C79.077 1.00089 78.9519 1.00176 78.7891 1.00349C78.4634 1.00693 77.987 1.01379 77.3757 1.02741C76.1534 1.05466 74.3909 1.10901 72.2161 1.21745C67.869 1.43421 61.8622 1.86772 55.2225 2.73569C42.0231 4.4612 25.9892 7.94454 15.6828 15.066C5.31324 22.2311 3.79587 29.9693 4.91484 35.897C5.47097 38.8431 6.67401 41.3349 7.73623 43.0901C8.26821 43.9691 8.76743 44.6675 9.13759 45.1507C9.32276 45.3923 9.47591 45.5805 9.58509 45.7108C9.63969 45.776 9.68332 45.8267 9.7145 45.8625L9.75174 45.9048L9.76302 45.9174L9.76676 45.9216C9.76713 45.922 9.76887 45.924 10.2043 45.7362L9.76921 45.9243C9.83907 46.0016 9.91979 46.0713 10.0091 46.1331C8.81664 48.5688 7.72314 50.9969 6.74279 53.3C4.96048 57.4873 3.53528 61.3034 2.55564 64.0726C2.06568 65.4576 1.68684 66.5816 1.4302 67.3603C1.30187 67.7497 1.20407 68.0528 1.13819 68.2591L1.06347 68.4947L1.04438 68.5556L1.03816 68.5755C1.03806 68.5758 1.03764 68.5772 2.70199 68.8236L1.03816 68.5755C0.84119 69.2107 1.42615 69.8375 2.34534 69.9736C3.26454 70.1097 4.16937 69.7052 4.36634 69.0701L4.37202 69.0518L4.39003 68.9944L4.46249 68.766C4.52681 68.5646 4.62294 68.2666 4.74949 67.8826C5.0026 67.1146 5.37731 66.0027 5.86253 64.6311C6.83325 61.8872 8.24493 58.1075 10.0087 53.9638C13.5566 45.6287 18.4622 35.9869 23.9764 30.2716C29.4817 24.5657 36.3728 20.7531 41.9021 18.3652C44.6641 17.1724 47.0769 16.3392 48.7907 15.8063C49.6472 15.54 50.3279 15.3491 50.7889 15.226C51.0194 15.1644 51.1949 15.1199 51.3098 15.0914L51.4361 15.0606L51.4638 15.054L51.4682 15.053C52.3592 14.8473 52.841 14.1814 52.5438 13.5655C52.2466 12.9493 51.2826 12.6163 50.3908 12.8217L50.8841 13.8443C50.3907 12.8217 50.3914 12.8215 50.3908 12.8217L50.3832 12.8234L50.3695 12.8266L50.3237 12.8375C50.285 12.8467 50.2304 12.8599 50.1604 12.8773C50.0205 12.912 49.8192 12.9631 49.562 13.0318C49.0479 13.169 48.3102 13.3763 47.3937 13.6613C45.5613 14.231 43.0095 15.113 40.0978 16.3705C34.2795 18.8832 26.9863 22.9115 21.1439 28.9668C17.5795 32.6612 14.3174 37.8172 11.5105 43.1689C11.3119 42.8775 11.0979 42.5477 10.8769 42.1825C9.90014 40.5686 8.7982 38.2823 8.29051 35.5928C7.28181 30.2492 8.60132 23.2858 18.09 16.7293C27.6418 10.1293 42.8136 6.75184 55.8554 5.04696C62.3363 4.19974 68.2089 3.77565 72.4612 3.56361C74.5861 3.45766 76.3032 3.40481 77.4855 3.37845C78.0766 3.36528 78.5338 3.35873 78.8412 3.35548C78.9949 3.35385 79.1111 3.35305 79.1879 3.35265L79.2732 3.35231L79.2932 3.35227L79.2982 3.35226Z" fill="#A1A1A1"/>
<path d="M76.9617 6.93262C77.8602 7.12365 78.3644 7.78179 78.088 8.40263L76.4611 8.05675C78.088 8.40263 78.0881 8.40229 78.088 8.40263L78.0854 8.40845L78.0787 8.42348L78.0529 8.48074L77.9527 8.70051C77.8645 8.89249 77.734 9.17368 77.5632 9.53354C77.2216 10.2532 76.7188 11.2879 76.0712 12.5531C74.7766 15.0824 72.9007 18.5392 70.5761 22.2459C68.2534 25.9496 65.4708 29.922 62.3588 33.4748C59.2612 37.0111 55.7691 40.2112 51.9925 42.2989C44.5485 46.4138 37.0621 47.4572 31.4256 47.4572C28.6163 47.4572 26.2713 47.1985 24.619 46.9375C23.792 46.8069 23.1359 46.6753 22.6787 46.5743C22.45 46.5237 22.2709 46.4807 22.1447 46.4492C22.0816 46.4334 22.0317 46.4206 21.9955 46.411L21.9514 46.3993L21.9372 46.3954L21.932 46.394C21.9311 46.3938 21.9281 46.3929 22.5603 45.3009L21.9281 46.3929C21.0553 46.1517 20.6308 45.4672 20.9799 44.8641C21.3286 44.2618 22.317 43.9685 23.1889 44.208L23.2074 44.2129L23.3014 44.2369C23.3899 44.259 23.5294 44.2926 23.7163 44.3339C24.0902 44.4166 24.6531 44.53 25.3775 44.6444C26.828 44.8735 28.9157 45.1049 31.4256 45.1049C36.4274 45.1049 43.1253 44.1881 49.8658 40.4621C53.1814 38.6293 56.427 35.7038 59.4464 32.2568C62.4513 28.8263 65.1652 24.9578 67.4525 21.3106C69.7378 17.6666 71.5853 14.2626 72.8617 11.7688C73.4996 10.5225 73.994 9.50509 74.3285 8.80051C74.4956 8.44826 74.6228 8.17431 74.7078 7.98918L74.8034 7.77943L74.827 7.72701L74.834 7.71144C75.1105 7.09061 76.0632 6.7416 76.9617 6.93262Z" fill="#A1A1A1"/>
<path d="M56.1098 30.7235C56.9925 29.8291 56.6587 28.6096 55.3642 27.9997C54.0698 27.3897 52.3048 27.6204 51.4221 28.5148C47.094 32.9006 43.95 35.195 41.0523 36.3814C38.3151 37.5022 35.5165 37.7466 31.3426 37.4691C29.783 37.3654 28.3971 38.1549 28.247 39.2325C28.097 40.3102 29.2396 41.2678 30.7992 41.3715C35.5881 41.6899 39.7624 41.4666 43.9447 39.7542C47.9665 38.1075 51.6887 35.2035 56.1098 30.7235Z" fill="#A1A1A1"/>
<path d="M2.77522 68.329C2.50206 68.2886 2.24783 68.4772 2.20738 68.7504C2.16694 69.0236 2.35559 69.2778 2.62875 69.3182L2.77522 68.329ZM4.2931 69.5647C4.56627 69.6051 4.8205 69.4165 4.86094 69.1433C4.90139 68.8701 4.71274 68.6159 4.43957 68.5754L4.2931 69.5647ZM2.62875 69.3182L4.2931 69.5647L4.43957 68.5754L2.77522 68.329L2.62875 69.3182ZM79.2982 3.35226L79.298 2.35226L79.2972 2.35227L79.2982 3.35226ZM79.2979 1L79.2975 -1.19209e-07L79.297 3.57628e-07L79.2979 1ZM79.287 1.00001L79.2861 9.23872e-06L79.2851 1.12653e-05L79.287 1.00001ZM79.2607 1.00006L79.2587 6.01411e-05L79.2567 6.83069e-05L79.2607 1.00006ZM79.1625 1.00045L79.1585 0.000458777L79.1573 0.000464857L79.1625 1.00045ZM78.7891 1.00349L78.7996 2.00343L78.7891 1.00349ZM77.3757 1.02741L77.398 2.02716L77.3757 1.02741ZM72.2161 1.21745L72.1663 0.218691L72.2161 1.21745ZM55.2225 2.73569L55.0929 1.74413L55.2225 2.73569ZM15.6828 15.066L15.1143 14.2433L15.6828 15.066ZM4.91484 35.897L3.93219 36.0825L4.91484 35.897ZM7.73623 43.0901L6.8807 43.6078H6.8807L7.73623 43.0901ZM9.13759 45.1507L9.93138 44.5425L9.93138 44.5425L9.13759 45.1507ZM9.58509 45.7108L10.3516 45.0686L10.3516 45.0686L9.58509 45.7108ZM9.7145 45.8625L8.96075 46.5196L8.96351 46.5228L9.7145 45.8625ZM9.75174 45.9048L9.00074 46.5652L9.00561 46.5706L9.75174 45.9048ZM9.76302 45.9174L9.01688 46.5833L9.01887 46.5855L9.76302 45.9174ZM9.76676 45.9216L9.02261 46.5896L9.02432 46.5915L9.76676 45.9216ZM10.2043 45.7362L10.6012 46.6541L9.80836 44.8179L10.2043 45.7362ZM9.76921 45.9243L9.37233 45.0065L8.09152 45.5603L9.02758 46.5951L9.76921 45.9243ZM10.0091 46.1331L10.9073 46.5728L11.2856 45.8001L10.578 45.3107L10.0091 46.1331ZM6.74279 53.3L7.66291 53.6917L6.74279 53.3ZM2.55564 64.0726L1.61289 63.7391H1.61289L2.55564 64.0726ZM1.4302 67.3603L2.37995 67.6733H2.37995L1.4302 67.3603ZM1.13819 68.2591L0.185584 67.9549L0.184997 67.9568L1.13819 68.2591ZM1.06347 68.4947L0.110268 68.1923L0.109286 68.1955L1.06347 68.4947ZM1.04438 68.5556L0.0901945 68.2563L0.0896502 68.2581L1.04438 68.5556ZM1.03816 68.5755L0.083432 68.278L0.0830349 68.2793L1.03816 68.5755ZM2.70199 68.8236L2.55552 69.8128L2.84948 67.8346L2.70199 68.8236ZM2.34534 69.9736L2.49181 68.9844L2.34534 69.9736ZM4.36634 69.0701L3.41161 68.7726L3.41121 68.7739L4.36634 69.0701ZM4.37202 69.0518L3.41784 68.7526L3.4173 68.7543L4.37202 69.0518ZM4.39003 68.9944L3.43684 68.692L3.43585 68.6951L4.39003 68.9944ZM4.46249 68.766L3.50988 68.4618L3.50929 68.4636L4.46249 68.766ZM4.74949 67.8826L3.79974 67.5696H3.79974L4.74949 67.8826ZM5.86253 64.6311L4.91979 64.2976H4.91979L5.86253 64.6311ZM10.0087 53.9638L9.08861 53.5721L10.0087 53.9638ZM23.9764 30.2716L24.6961 30.966V30.9659L23.9764 30.2716ZM41.9021 18.3652L42.2985 19.2832L41.9021 18.3652ZM48.7907 15.8063L48.4937 14.8514L48.7907 15.8063ZM50.7889 15.226L51.0469 16.1921H51.0469L50.7889 15.226ZM51.3098 15.0914L51.0729 14.1199L51.0692 14.1208L51.3098 15.0914ZM51.4361 15.0606L51.2054 14.0876L51.1991 14.0891L51.4361 15.0606ZM51.4638 15.054L51.236 14.0803L51.2332 14.081L51.4638 15.054ZM51.4682 15.053L51.2432 14.0787L51.2404 14.0793L51.4682 15.053ZM52.5438 13.5655L53.4445 13.131L53.4445 13.131L52.5438 13.5655ZM50.3908 12.8217L50.1657 11.8473L50.1652 11.8474L50.3908 12.8217ZM50.8841 13.8443L49.9834 14.2788L51.7848 13.4098L50.8841 13.8443ZM50.3832 12.8234L50.1577 11.8492L50.1558 11.8496L50.3832 12.8234ZM50.3695 12.8266L50.142 11.8528L50.139 11.8536L50.3695 12.8266ZM50.3237 12.8375L50.0931 11.8644L50.0913 11.8649L50.3237 12.8375ZM50.1604 12.8773L50.401 13.8479V13.8479L50.1604 12.8773ZM49.562 13.0318L49.3041 12.0656V12.0656L49.562 13.0318ZM47.3937 13.6613L47.6906 14.6162L47.3937 13.6613ZM40.0978 16.3705L39.7013 15.4524L40.0978 16.3705ZM21.1439 28.9668L21.8636 29.6611L21.1439 28.9668ZM11.5105 43.1689L10.684 43.7319L11.6222 45.1089L12.396 43.6334L11.5105 43.1689ZM10.8769 42.1825L11.7325 41.6648L11.7325 41.6648L10.8769 42.1825ZM8.29051 35.5928L9.27315 35.4073L8.29051 35.5928ZM18.09 16.7293L18.6584 17.552L18.09 16.7293ZM55.8554 5.04696L55.985 6.03852L55.8554 5.04696ZM72.4612 3.56361L72.4113 2.56485L72.4612 3.56361ZM77.4855 3.37845L77.5078 4.3782L77.4855 3.37845ZM78.8412 3.35548L78.8306 2.35553L78.8412 3.35548ZM79.1879 3.35265L79.1839 2.35266L79.1827 2.35266L79.1879 3.35265ZM79.2732 3.35231L79.2712 2.35231L79.2692 2.35232L79.2732 3.35231ZM79.2932 3.35227L79.2923 2.35227L79.2912 2.35227L79.2932 3.35227ZM78.0854 8.40845L78.9981 8.81704L78.9987 8.81568L78.0854 8.40845ZM78.0787 8.42348L78.9904 8.83423L78.9914 8.83207L78.0787 8.42348ZM78.0529 8.48074L78.9628 8.89561L78.9646 8.89148L78.0529 8.48074ZM77.9527 8.70051L78.8615 9.11776L78.8625 9.11538L77.9527 8.70051ZM77.5632 9.53354L78.4666 9.96233V9.96232L77.5632 9.53354ZM76.0712 12.5531L76.9613 13.0087V13.0087L76.0712 12.5531ZM70.5761 22.2459L71.4233 22.7772L70.5761 22.2459ZM62.3588 33.4748L61.6065 32.8159V32.8159L62.3588 33.4748ZM51.9925 42.2989L51.5087 41.4237L51.9925 42.2989ZM24.619 46.9375L24.775 45.9498L24.619 46.9375ZM22.6787 46.5743L22.4628 47.5507H22.4628L22.6787 46.5743ZM22.1447 46.4492L21.9024 47.4194L21.9025 47.4194L22.1447 46.4492ZM21.9955 46.411L21.7381 47.3773L21.7409 47.3781L21.9955 46.411ZM21.9514 46.3993L21.6896 47.3644L21.6941 47.3656L21.9514 46.3993ZM21.9372 46.3954L21.6734 47.36L21.6753 47.3605L21.9372 46.3954ZM21.932 46.394L22.1958 45.4294L22.1954 45.4293L21.932 46.394ZM21.9281 46.3929L21.6617 47.3568L22.4065 47.5626L22.7936 46.8939L21.9281 46.3929ZM20.9799 44.8641L21.8454 45.3651L21.8454 45.3651L20.9799 44.8641ZM23.1889 44.208L22.9241 45.1723L22.9319 45.1744L23.1889 44.208ZM23.2074 44.2129L22.9503 45.1793L22.9598 45.1817L23.2074 44.2129ZM23.3014 44.2369L23.0538 45.2058L23.0592 45.2071L23.3014 44.2369ZM23.7163 44.3339L23.9322 43.3575L23.9321 43.3575L23.7163 44.3339ZM25.3775 44.6444L25.2215 45.6322H25.2215L25.3775 44.6444ZM49.8658 40.4621L50.3496 41.3373L49.8658 40.4621ZM59.4464 32.2568L60.1986 32.9157V32.9157L59.4464 32.2568ZM67.4525 21.3106L68.2997 21.8419L67.4525 21.3106ZM72.8617 11.7688L73.7519 12.2244L72.8617 11.7688ZM74.3285 8.80051L75.2319 9.2293L75.2319 9.22929L74.3285 8.80051ZM74.7078 7.98918L75.6166 8.40645L75.6177 8.40402L74.7078 7.98918ZM74.8034 7.77943L75.7133 8.19428L75.7151 8.19028L74.8034 7.77943ZM74.827 7.72701L75.7387 8.13785L75.7398 8.13555L74.827 7.72701ZM74.834 7.71144L75.7467 8.11999L75.7475 8.11824L74.834 7.71144ZM55.3642 27.9997L54.938 28.9043L55.3642 27.9997ZM56.1098 30.7235L56.8216 31.426V31.426L56.1098 30.7235ZM51.4221 28.5148L50.7104 27.8124L50.7104 27.8124L51.4221 28.5148ZM41.0523 36.3814L40.6734 35.456L41.0523 36.3814ZM31.3426 37.4691L31.4089 36.4713H31.4089L31.3426 37.4691ZM28.247 39.2325L29.2375 39.3705L28.247 39.2325ZM30.7992 41.3715L30.8655 40.3737L30.7992 41.3715ZM43.9447 39.7542L43.5658 38.8288L43.9447 39.7542ZM80 2.17613C80 2.07914 80.0579 2.09875 79.933 2.18506C79.8122 2.26856 79.5908 2.35223 79.298 2.35226L79.2983 4.35226C79.9455 4.35219 80.575 4.17254 81.0701 3.83038C81.5611 3.49101 82 2.92262 82 2.17613H80ZM79.2979 2C79.5906 2 79.8121 2.08367 79.933 2.16719C80.0579 2.25351 80 2.27314 80 2.17613H82C82 1.42956 81.5611 0.861133 81.0699 0.521777C80.5747 0.179618 79.9452 0 79.2979 0V2ZM80.2979 2.17613V1H78.2979V2.17613H80.2979ZM79.2982 2C79.33 1.99999 79.1218 2.01288 78.9026 1.91855C78.6407 1.80585 78.4931 1.61345 78.4192 1.47739C78.3553 1.35979 78.3308 1.25717 78.3224 1.21985C78.3119 1.17306 78.307 1.13546 78.3049 1.1173C78.3006 1.08082 78.2993 1.0522 78.299 1.0457C78.2986 1.03494 78.2984 1.02667 78.2983 1.02344C78.2981 1.01412 78.2981 1.0083 78.2982 1.02019C78.2982 1.037 78.2982 1.07197 78.2981 1.14641C78.298 1.29358 78.2979 1.58782 78.2979 2.17613H80.2979C80.2979 1.58831 80.298 1.29448 80.2981 1.14762C80.2982 1.07505 80.2982 1.03651 80.2982 1.01656C80.2982 1.01008 80.2981 0.995064 80.2979 0.981156C80.2978 0.97678 80.2975 0.96764 80.297 0.956238C80.2967 0.949091 80.2954 0.920038 80.2911 0.883279C80.289 0.864967 80.2841 0.827261 80.2735 0.780388C80.2651 0.742994 80.2405 0.640321 80.1766 0.52268C80.1027 0.386587 79.9551 0.194171 79.6932 0.0814562C79.5758 0.0309149 79.4713 0.0126392 79.4013 0.00535774C79.3672 0.0018217 79.3396 0.000737071 79.3232 0.000320494C79.3168 0.000178218 79.3071 4.26769e-05 79.3039 1.81794e-05C79.3007 4.05312e-06 79.2975 5.96046e-08 79.2975 5.96046e-08L79.2982 2ZM79.2879 2.00001L79.2987 2L79.297 3.57628e-07L79.2861 9.77516e-06L79.2879 2.00001ZM79.2626 2.00006L79.2889 2.00001L79.2851 1.12653e-05L79.2587 6.22272e-05L79.2626 2.00006ZM79.1665 2.00044L79.2647 2.00005L79.2567 6.83069e-05L79.1585 0.000459492L79.1665 2.00044ZM78.7996 2.00343C78.9606 2.00173 79.0839 2.00087 79.1676 2.00044L79.1573 0.000464857C79.0701 0.00091511 78.9432 0.00180107 78.7785 0.00354391L78.7996 2.00343ZM77.398 2.02716C78.0052 2.01363 78.4777 2.00684 78.7996 2.00343L78.7785 0.00354391C78.4492 0.00702941 77.9688 0.0139436 77.3535 0.0276597L77.398 2.02716ZM72.2659 2.21621C74.4305 2.10827 76.1838 2.05423 77.398 2.02716L77.3535 0.0276597C76.123 0.055087 74.3512 0.109742 72.1663 0.218691L72.2659 2.21621ZM55.3522 3.72726C61.9589 2.86359 67.9381 2.43201 72.2659 2.21621L72.1663 0.218691C67.8 0.436414 61.7656 0.871841 55.0929 1.74413L55.3522 3.72726ZM16.2513 15.8887C26.3443 8.91469 42.1651 5.45113 55.3522 3.72726L55.0929 1.74413C41.881 3.47126 25.6341 6.97438 15.1143 14.2433L16.2513 15.8887ZM5.89748 35.7115C5.369 32.9119 5.46396 29.7017 6.90929 26.3406C8.35603 22.9762 11.1873 19.3878 16.2513 15.8887L15.1143 14.2433C9.8087 17.9094 6.69655 21.7726 5.07196 25.5505C3.44596 29.3317 3.34171 32.9544 3.93219 36.0825L5.89748 35.7115ZM8.59175 42.5723C7.56992 40.8839 6.42486 38.5053 5.89748 35.7115L3.93219 36.0825C4.51708 39.181 5.7781 41.786 6.8807 43.6078L8.59175 42.5723ZM9.93138 44.5425C9.57989 44.0837 9.10203 43.4155 8.59175 42.5723L6.8807 43.6078C7.43439 44.5227 7.95496 45.2513 8.34379 45.7588L9.93138 44.5425ZM10.3516 45.0686C10.2511 44.9486 10.1071 44.7718 9.93138 44.5425L8.34379 45.7588C8.53844 46.0129 8.70075 46.2124 8.81858 46.353L10.3516 45.0686ZM10.4682 45.2053C10.4412 45.1743 10.4019 45.1286 10.3516 45.0686L8.81858 46.353C8.87751 46.4234 8.9254 46.4791 8.96075 46.5196L10.4682 45.2053ZM10.5027 45.2445L10.4655 45.2021L8.96351 46.5228L9.00076 46.5651L10.5027 45.2445ZM10.5091 45.2516L10.4979 45.239L9.00561 46.5706L9.01689 46.5833L10.5091 45.2516ZM10.5109 45.2536L10.5072 45.2494L9.01887 46.5855L9.02261 46.5896L10.5109 45.2536ZM9.80836 44.8179C9.59102 44.9116 9.48621 44.9562 9.43695 44.9767C9.40996 44.988 9.40784 44.9887 9.41562 44.9857C9.4184 44.9846 9.42495 44.9821 9.43383 44.9789C9.44064 44.9765 9.46013 44.9696 9.48589 44.962C9.4898 44.9609 9.58255 44.9314 9.70297 44.9237C9.76582 44.9197 9.92404 44.9144 10.1104 44.9825C10.2133 45.0202 10.3071 45.0737 10.3891 45.1389C10.4273 45.1693 10.4571 45.1975 10.4778 45.2185C10.488 45.2287 10.496 45.2373 10.5012 45.2429C10.5032 45.2451 10.5062 45.2484 10.5072 45.2495C10.5082 45.2506 10.5092 45.2517 10.5092 45.2517L9.02432 46.5915C9.05042 46.6205 9.18565 46.7739 9.42325 46.8608C9.60964 46.929 9.76794 46.9237 9.83093 46.9196C9.95163 46.9119 10.0449 46.8823 10.0497 46.8809C10.0934 46.8681 10.1288 46.8542 10.1325 46.8528C10.1543 46.8444 10.1799 46.8339 10.2078 46.8222C10.2684 46.7969 10.3822 46.7485 10.6003 46.6545L9.80836 44.8179ZM10.1661 46.8422L10.6012 46.6541L9.80744 44.8183L9.37233 45.0065L10.1661 46.8422ZM10.578 45.3107C10.546 45.2885 10.5245 45.2686 10.5108 45.2535L9.02758 46.5951C9.15363 46.7345 9.29362 46.8541 9.44024 46.9555L10.578 45.3107ZM7.66291 53.6917C8.63764 51.4017 9.72385 48.99 10.9073 46.5728L9.11101 45.6934C7.90944 48.1476 6.80864 50.5921 5.82268 52.9084L7.66291 53.6917ZM3.49838 64.4061C4.47297 61.6512 5.89069 57.8552 7.66291 53.6917L5.82268 52.9084C4.03028 57.1193 2.59759 60.9556 1.61289 63.7391L3.49838 64.4061ZM2.37995 67.6733C2.63459 66.9007 3.01109 65.7835 3.49838 64.4061L1.61289 63.7391C1.12027 65.1316 0.739105 66.2625 0.480451 67.0473L2.37995 67.6733ZM2.0908 68.5633C2.15579 68.3598 2.25264 68.0596 2.37995 67.6733L0.480451 67.0473C0.351109 67.4398 0.252359 67.7458 0.185585 67.9549L2.0908 68.5633ZM2.01666 68.7971L2.09138 68.5615L0.184997 67.9568L0.110273 68.1923L2.01666 68.7971ZM1.99856 68.8548L2.01765 68.7939L0.109286 68.1955L0.0901961 68.2563L1.99856 68.8548ZM2.84846 67.8344C2.01634 67.7112 1.60115 67.6494 1.39422 67.6183C1.2903 67.6028 1.24049 67.5952 1.21719 67.5916C1.204 67.5895 1.20405 67.5895 1.20877 67.5903C1.21043 67.5906 1.21446 67.5912 1.21983 67.5922C1.22354 67.5929 1.2364 67.5953 1.25294 67.5989C1.26112 67.6007 1.27731 67.6043 1.29756 67.6098C1.31171 67.6136 1.35898 67.6263 1.41692 67.65C1.44631 67.6621 1.50103 67.686 1.56462 67.7253C1.62299 67.7615 1.73911 67.8411 1.84318 67.9823C1.96601 68.149 2.03855 68.3563 2.03816 68.5773C2.03784 68.7516 1.98659 68.8933 1.99341 68.8713L0.0829082 68.2797C0.0897294 68.2577 0.038473 68.3994 0.0381598 68.5737C0.0377626 68.7948 0.110309 69.0021 0.233145 69.1688C0.413383 69.4134 0.653686 69.4987 0.659483 69.5011C0.71747 69.5248 0.764808 69.5376 0.779074 69.5414C0.799431 69.5469 0.815767 69.5506 0.824151 69.5524C0.841085 69.5561 0.854545 69.5586 0.859159 69.5594C0.865432 69.5606 0.870679 69.5615 0.873951 69.562C0.885135 69.5639 0.898131 69.566 0.9109 69.568C0.9395 69.5724 0.993586 69.5806 1.0976 69.5962C1.30651 69.6275 1.72329 69.6896 2.55552 69.8128L2.84846 67.8344ZM0.890674 69.5646L2.5545 69.8127L2.84948 67.8346L1.18565 67.5865L0.890674 69.5646ZM2.49181 68.9844C2.21016 68.9427 2.057 68.8359 2.00386 68.779C1.97982 68.7533 1.98662 68.75 1.99393 68.7765C2.00266 68.808 2.00156 68.845 1.99328 68.8717L0.0830349 68.2793C-0.141208 69.0024 0.109126 69.6806 0.542518 70.1444C0.962416 70.5938 1.56133 70.8685 2.19887 70.9629L2.49181 68.9844ZM3.41121 68.7739C3.42473 68.7303 3.41764 68.8091 3.21851 68.8982C3.03325 68.981 2.77035 69.0257 2.49181 68.9844L2.19887 70.9629C2.83953 71.0577 3.48864 70.9682 4.03484 70.724C4.56716 70.486 5.11097 70.045 5.32146 69.3663L3.41121 68.7739ZM3.43585 68.6951L3.41785 68.7526L5.3262 69.351L5.34421 69.2936L3.43585 68.6951ZM3.50929 68.4636L3.43684 68.692L5.34322 69.2968L5.41568 69.0683L3.50929 68.4636ZM3.79974 67.5696C3.67218 67.9566 3.5751 68.2576 3.50988 68.4618L5.41509 69.0702C5.47853 68.8715 5.5737 68.5765 5.69924 68.1956L3.79974 67.5696ZM4.91979 64.2976C4.4319 65.6768 4.05486 66.7955 3.79974 67.5696L5.69924 68.1956C5.95034 67.4337 6.32272 66.3287 6.80528 64.9647L4.91979 64.2976ZM9.08861 53.5721C7.31473 57.7396 5.89556 61.5394 4.91979 64.2976L6.80528 64.9647C7.77094 62.235 9.17513 58.4754 10.9288 54.3554L9.08861 53.5721ZM23.2568 29.5773C17.6046 35.4356 12.6402 45.2282 9.08861 53.5721L10.9288 54.3554C14.4729 46.0293 19.3198 36.5383 24.6961 30.966L23.2568 29.5773ZM41.5056 17.4471C35.9111 19.8632 28.8885 23.7402 23.2568 29.5773L24.6961 30.9659C30.0748 25.3911 36.8345 21.6429 42.2985 19.2832L41.5056 17.4471ZM48.4937 14.8514C46.7526 15.3928 44.3059 16.2378 41.5056 17.4471L42.2985 19.2832C45.0224 18.1069 47.4011 17.2856 49.0876 16.7612L48.4937 14.8514ZM50.531 14.2598C50.058 14.3861 49.3642 14.5808 48.4937 14.8514L49.0876 16.7612C49.9301 16.4993 50.5978 16.312 51.0469 16.1921L50.531 14.2598ZM51.0692 14.1208C50.9487 14.1507 50.7675 14.1967 50.531 14.2598L51.0469 16.1921C51.2714 16.1322 51.441 16.0892 51.5504 16.062L51.0692 14.1208ZM51.1991 14.0891L51.0729 14.1199L51.5468 16.0629L51.673 16.0321L51.1991 14.0891ZM51.2332 14.081L51.2054 14.0876L51.6667 16.0337L51.6945 16.0271L51.2332 14.081ZM51.2404 14.0793L51.236 14.0803L51.6916 16.0277L51.696 16.0267L51.2404 14.0793ZM51.6432 14C51.6381 13.9896 51.6281 13.9574 51.6328 13.9159C51.6371 13.8782 51.6498 13.8653 51.6413 13.877C51.619 13.9078 51.5097 14.0171 51.2432 14.0787L51.6932 16.0274C52.3177 15.8832 52.8948 15.5567 53.2618 15.0491C53.6488 14.5141 53.7691 13.8039 53.4445 13.131L51.6432 14ZM50.6152 13.7962C50.8769 13.7359 51.1499 13.7568 51.3637 13.8307C51.5918 13.9095 51.646 14.0059 51.6432 14L53.4445 13.131C53.1444 12.5089 52.568 12.1307 52.0168 11.9403C51.4513 11.7449 50.7965 11.702 50.1663 11.8472L50.6152 13.7962ZM51.7848 13.4098L51.2915 12.3872L49.4901 13.2562L49.9834 14.2788L51.7848 13.4098ZM50.6158 13.796C50.6327 13.7921 50.459 13.8417 50.2489 13.8116C50.0195 13.7787 49.8551 13.675 49.7593 13.597C49.6731 13.5268 49.6186 13.458 49.5967 13.4294C49.5708 13.3955 49.5525 13.367 49.5434 13.3524C49.5253 13.3237 49.5129 13.3003 49.5098 13.2947C49.505 13.2857 49.5015 13.2787 49.5001 13.276C49.4961 13.2681 49.4938 13.2632 49.4988 13.2735C49.5059 13.2882 49.5205 13.3186 49.5517 13.3834C49.6134 13.5114 49.7367 13.7673 49.9834 14.2788L51.7848 13.4098C51.5382 12.8987 51.4151 12.6432 51.3536 12.5155C51.3232 12.4524 51.3071 12.4189 51.2987 12.4017C51.296 12.396 51.2898 12.3831 51.2838 12.3713C51.2819 12.3675 51.2779 12.3598 51.2728 12.3503C51.2695 12.3441 51.2568 12.3204 51.2387 12.2913C51.2295 12.2767 51.2111 12.2481 51.1851 12.2141C51.1632 12.1854 51.1087 12.1166 51.0224 12.0464C50.9266 11.9683 50.7622 11.8647 50.5327 11.8318C50.4244 11.8163 50.3317 11.8211 50.2641 11.8297C50.232 11.8338 50.2062 11.8387 50.1903 11.842C50.1841 11.8433 50.1749 11.8453 50.1718 11.8459C50.1688 11.8466 50.1657 11.8473 50.1657 11.8473L50.6158 13.796ZM50.6088 13.7977L50.6163 13.7959L50.1652 11.8474L50.1577 11.8492L50.6088 13.7977ZM50.597 13.8004L50.6107 13.7972L50.1558 11.8496L50.142 11.8528L50.597 13.8004ZM50.5542 13.8105L50.6 13.7997L50.139 11.8536L50.0931 11.8644L50.5542 13.8105ZM50.401 13.8479C50.4682 13.8313 50.5201 13.8187 50.556 13.8101L50.0913 11.8649C50.05 11.8747 49.9926 11.8886 49.9198 11.9067L50.401 13.8479ZM49.82 13.9979C50.0711 13.9309 50.2666 13.8812 50.401 13.8479L49.9198 11.9067C49.7743 11.9427 49.5672 11.9954 49.3041 12.0656L49.82 13.9979ZM47.6906 14.6162C48.5932 14.3355 49.3178 14.132 49.82 13.9979L49.3041 12.0656C48.778 12.2061 48.0273 12.417 47.0967 12.7063L47.6906 14.6162ZM40.4943 17.2885C43.3678 16.0476 45.8856 15.1774 47.6906 14.6162L47.0967 12.7063C45.2371 13.2846 42.6513 14.1785 39.7013 15.4524L40.4943 17.2885ZM21.8636 29.6611C27.5794 23.7369 34.7413 19.773 40.4943 17.2885L39.7013 15.4524C33.8178 17.9933 26.3931 22.086 20.4243 28.2725L21.8636 29.6611ZM12.396 43.6334C15.1855 38.315 18.3956 33.2555 21.8636 29.6611L20.4243 28.2725C16.7633 32.0669 13.4494 37.3193 10.6249 42.7044L12.396 43.6334ZM10.0214 42.7003C10.2523 43.0819 10.4761 43.4268 10.684 43.7319L12.3369 42.6058C12.1477 42.3282 11.9435 42.0135 11.7325 41.6648L10.0214 42.7003ZM7.30786 35.7783C7.84431 38.6201 9.00423 41.0196 10.0214 42.7003L11.7325 41.6648C10.796 40.1175 9.75209 37.9445 9.27315 35.4073L7.30786 35.7783ZM17.5215 15.9066C12.6581 19.2671 9.8147 22.784 8.33524 26.2204C6.85398 29.6611 6.77297 32.9447 7.30786 35.7783L9.27315 35.4073C8.79934 32.8973 8.87374 30.0274 10.1722 27.0113C11.4725 23.9911 14.0332 20.748 18.6584 17.552L17.5215 15.9066ZM55.7257 4.05539C42.6717 5.76189 27.2867 9.15908 17.5215 15.9066L18.6584 17.552C27.9968 11.0995 42.9556 7.74179 55.985 6.03852L55.7257 4.05539ZM72.4113 2.56485C68.1399 2.77785 62.2396 3.20386 55.7257 4.05539L55.985 6.03852C62.4329 5.19562 68.278 4.77345 72.511 4.56237L72.4113 2.56485ZM77.4632 2.3787C76.2728 2.40524 74.5464 2.45839 72.4113 2.56485L72.511 4.56237C74.6257 4.45692 76.3336 4.40438 77.5078 4.3782L77.4632 2.3787ZM78.8306 2.35553C78.5195 2.35883 78.0584 2.36543 77.4632 2.3787L77.5078 4.3782C78.0948 4.36512 78.5481 4.35864 78.8518 4.35542L78.8306 2.35553ZM79.1827 2.35266C79.1042 2.35307 78.9862 2.35389 78.8306 2.35553L78.8518 4.35542C79.0036 4.35381 79.1181 4.35302 79.1931 4.35264L79.1827 2.35266ZM79.2692 2.35232L79.1839 2.35266L79.1919 4.35264L79.2772 4.3523L79.2692 2.35232ZM79.2912 2.35227L79.2712 2.35231L79.2752 4.35231L79.2952 4.35227L79.2912 2.35227ZM79.2972 2.35227L79.2923 2.35227L79.2942 4.35227L79.2991 4.35226L79.2972 2.35227ZM79.0015 8.80942C79.3067 8.12402 79.1577 7.41837 78.7592 6.89826C78.3798 6.40303 77.7975 6.08796 77.1697 5.95449L76.7537 7.91076C77.0244 7.96831 77.1434 8.07783 77.1717 8.11464C77.1831 8.1296 77.171 8.11995 77.1657 8.08392C77.1598 8.04378 77.1682 8.00988 77.1745 7.99584L79.0015 8.80942ZM76.2532 9.03488L77.88 9.38077L78.2959 7.42449L76.6691 7.07861L76.2532 9.03488ZM78.999 8.81509C78.999 8.81509 79.0024 8.80742 79.0058 8.79972C79.0091 8.79187 79.0189 8.76797 79.025 8.75183C79.0404 8.71054 79.0646 8.63761 79.078 8.54326C79.1101 8.31769 79.065 8.07837 78.9352 7.87136C78.8286 7.70133 78.6982 7.60725 78.6395 7.56842C78.5736 7.52486 78.5167 7.49866 78.4888 7.48645C78.433 7.46203 78.3872 7.44835 78.3761 7.44501C78.3583 7.43964 78.3441 7.43591 78.3375 7.43422C78.3241 7.43075 78.3133 7.42829 78.3105 7.42765C78.3062 7.42664 78.3025 7.42582 78.3003 7.42535C78.293 7.42374 78.283 7.42159 78.2712 7.41908C78.2453 7.41354 78.1938 7.40261 78.0924 7.38108C77.8891 7.3379 77.4824 7.25153 76.6691 7.07861L76.2532 9.03488C77.0667 9.20784 77.4735 9.29425 77.6769 9.33745C77.779 9.35912 77.8292 9.36978 77.854 9.37508C77.8677 9.378 77.8703 9.37858 77.8694 9.37837C77.8688 9.37825 77.8663 9.37769 77.8628 9.37689C77.8609 9.37645 77.8508 9.37413 77.8377 9.37076C77.8314 9.36912 77.8173 9.36543 77.7995 9.36009C77.7886 9.35679 77.7429 9.34313 77.6871 9.31873C77.6592 9.30653 77.6024 9.28033 77.5365 9.23678C77.4778 9.19797 77.3474 9.10389 77.2408 8.93386C77.111 8.72686 77.0659 8.48755 77.0979 8.26199C77.1216 8.09528 77.1893 7.96312 77.177 7.99017L78.999 8.81509ZM78.9987 8.81568L79.0013 8.80986L77.1747 7.9954L77.1721 8.00121L78.9987 8.81568ZM78.9914 8.83207L78.9981 8.81704L77.1727 7.99986L77.1659 8.0149L78.9914 8.83207ZM78.9646 8.89148L78.9904 8.83423L77.1669 8.01274L77.1411 8.07L78.9646 8.89148ZM78.8625 9.11538L78.9627 8.89561L77.143 8.06587L77.0428 8.28565L78.8625 9.11538ZM78.4666 9.96232C78.6393 9.59844 78.7716 9.31341 78.8615 9.11776L77.0439 8.28327C76.9574 8.47158 76.8287 8.74892 76.6598 9.10476L78.4666 9.96232ZM76.9613 13.0087C77.614 11.7336 78.1213 10.69 78.4666 9.96233L76.6598 9.10475C76.322 9.81642 75.8235 10.8421 75.181 12.0975L76.9613 13.0087ZM71.4233 22.7772C73.7671 19.0399 75.6573 15.5566 76.9613 13.0087L75.181 12.0975C73.896 14.6081 72.0343 18.0385 69.7289 21.7146L71.4233 22.7772ZM63.111 34.1337C66.2688 30.5286 69.0826 26.5095 71.4233 22.7772L69.7289 21.7146C67.4242 25.3897 64.6729 29.3153 61.6065 32.8159L63.111 34.1337ZM52.4762 43.1741C56.3929 41.009 59.973 37.7161 63.111 34.1337L61.6065 32.8159C58.5493 36.306 55.1453 39.4134 51.5087 41.4237L52.4762 43.1741ZM31.4256 48.4572C37.18 48.4572 44.845 47.3925 52.4762 43.1741L51.5087 41.4237C44.2521 45.435 36.9442 46.4572 31.4256 46.4572V48.4572ZM24.463 47.9253C26.1579 48.193 28.5557 48.4572 31.4256 48.4572V46.4572C28.6769 46.4572 26.3847 46.204 24.775 45.9498L24.463 47.9253ZM22.4628 47.5507C22.9382 47.6558 23.6143 47.7913 24.463 47.9253L24.775 45.9498C23.9697 45.8226 23.3336 45.6949 22.8946 45.5978L22.4628 47.5507ZM21.9025 47.4194C22.0371 47.453 22.225 47.4981 22.4628 47.5507L22.8946 45.5978C22.6751 45.5493 22.5047 45.5084 22.3869 45.479L21.9025 47.4194ZM21.7409 47.3781C21.7812 47.3887 21.8352 47.4026 21.9024 47.4194L22.3869 45.479C22.328 45.4643 22.2822 45.4524 22.25 45.444L21.7409 47.3781ZM21.6941 47.3656L21.7381 47.3773L22.2528 45.4447L22.2088 45.433L21.6941 47.3656ZM21.6753 47.3605L21.6896 47.3644L22.2133 45.4342L22.199 45.4303L21.6753 47.3605ZM21.6682 47.3586L21.6734 47.36L22.2009 45.4308L22.1958 45.4294L21.6682 47.3586ZM21.6948 44.7999C21.3787 45.346 21.2202 45.6213 21.1406 45.7606C21.1015 45.8289 21.0788 45.8691 21.0653 45.8937C21.0612 45.901 21.0479 45.9251 21.0347 45.9519C21.0307 45.9601 21.0233 45.9756 21.0147 45.9952C21.0088 46.0089 20.9891 46.0546 20.9714 46.1156C20.9625 46.1462 20.9467 46.206 20.9381 46.2831C20.9304 46.3521 20.9199 46.5046 20.9758 46.6871C21.0433 46.9071 21.1862 47.1016 21.386 47.2318C21.4708 47.2871 21.547 47.3183 21.5942 47.3352C21.6181 47.3438 21.6378 47.3498 21.6497 47.3533C21.6544 47.3547 21.6614 47.3567 21.6638 47.3574C21.6662 47.358 21.6686 47.3587 21.6686 47.3587L22.1954 45.4293C22.1954 45.4293 22.1978 45.43 22.2002 45.4306C22.2025 45.4313 22.2096 45.4333 22.2143 45.4347C22.2262 45.4382 22.2458 45.4442 22.2697 45.4528C22.317 45.4697 22.3931 45.5009 22.4779 45.5562C22.6777 45.6863 22.8205 45.8808 22.888 46.1008C22.9439 46.2832 22.9334 46.4357 22.9258 46.5046C22.9172 46.5817 22.9013 46.6413 22.8925 46.6718C22.8749 46.7325 22.8553 46.7778 22.8497 46.7908C22.8414 46.8099 22.8343 46.8245 22.8309 46.8316C22.8199 46.8541 22.8111 46.8695 22.8165 46.8597C22.8219 46.8499 22.8378 46.8216 22.8769 46.7532C22.9536 46.619 23.1097 46.3479 23.4257 45.8019L21.6948 44.7999ZM22.7936 46.8939L23.4257 45.8019L21.6948 44.7999L21.0627 45.8919L22.7936 46.8939ZM20.1145 44.3631C19.7449 45.0016 19.7908 45.7187 20.146 46.2913C20.4805 46.8306 21.0445 47.1862 21.6617 47.3568L22.1945 45.4291C21.9389 45.3584 21.8543 45.2512 21.8456 45.2371C21.8436 45.234 21.8565 45.2545 21.8576 45.2951C21.8582 45.3141 21.8559 45.3316 21.8521 45.3459C21.8484 45.3601 21.8445 45.3666 21.8454 45.3651L20.1145 44.3631ZM23.4538 43.2437C22.8319 43.0729 22.1764 43.0916 21.6035 43.2618C21.0441 43.4279 20.4553 43.7743 20.1145 44.3631L21.8454 45.3651C21.8532 45.3516 21.9329 45.2503 22.1729 45.179C22.3993 45.1118 22.674 45.1036 22.9241 45.1722L23.4538 43.2437ZM23.4644 43.2465L23.446 43.2416L22.9319 45.1744L22.9503 45.1793L23.4644 43.2465ZM23.549 43.268L23.455 43.244L22.9598 45.1817L23.0538 45.2058L23.549 43.268ZM23.9321 43.3575C23.7544 43.3182 23.6238 43.2867 23.5436 43.2667L23.0592 45.2071C23.1561 45.2313 23.3043 45.267 23.5004 45.3103L23.9321 43.3575ZM25.5335 43.6567C24.8307 43.5457 24.2879 43.4361 23.9322 43.3575L23.5004 45.3103C23.8925 45.397 24.4754 45.5143 25.2215 45.6322L25.5335 43.6567ZM31.4256 44.1049C28.9763 44.1049 26.9414 43.879 25.5335 43.6567L25.2215 45.6322C26.7147 45.868 28.8551 46.1049 31.4256 46.1049V44.1049ZM49.382 39.5869C42.8288 43.2094 36.3093 44.1049 31.4256 44.1049V46.1049C36.5454 46.1049 43.4219 45.1668 50.3496 41.3373L49.382 39.5869ZM58.6942 31.5979C55.715 34.9989 52.5575 37.8316 49.382 39.5869L50.3496 41.3373C53.8053 39.4271 57.1389 36.4087 60.1986 32.9157L58.6942 31.5979ZM66.6053 20.7794C64.336 24.3979 61.6533 28.2197 58.6942 31.5979L60.1986 32.9157C63.2493 29.433 65.9945 25.5177 68.2997 21.8419L66.6053 20.7794ZM71.9715 11.3132C70.7047 13.7883 68.8714 17.1659 66.6053 20.7794L68.2997 21.8419C70.6042 18.1673 72.466 14.7368 73.7519 12.2244L71.9715 11.3132ZM73.425 8.37173C73.0944 9.06832 72.6044 10.0767 71.9715 11.3132L73.7519 12.2244C74.3948 10.9683 74.8937 9.94185 75.2319 9.2293L73.425 8.37173ZM73.799 7.5719C73.7157 7.7534 73.5903 8.02351 73.425 8.37174L75.2319 9.22929C75.401 8.87302 75.5299 8.59523 75.6166 8.40645L73.799 7.5719ZM73.8935 7.36459L73.7979 7.57433L75.6177 8.40402L75.7133 8.19428L73.8935 7.36459ZM73.9153 7.31616L73.8917 7.36859L75.7151 8.19028L75.7387 8.13785L73.9153 7.31616ZM77.1697 5.95449C76.5367 5.81991 75.8826 5.87285 75.3208 6.07855C74.7734 6.27895 74.2031 6.6701 73.9205 7.30465L75.7475 8.11824C75.7414 8.13195 75.7856 8.03818 76.0084 7.95662C76.2167 7.88037 76.4882 7.85432 76.7537 7.91076L77.1697 5.95449ZM54.938 28.9043C55.3929 29.1186 55.55 29.3767 55.5889 29.5189C55.6188 29.6282 55.6189 29.7973 55.398 30.0211L56.8216 31.426C57.4834 30.7553 57.7579 29.8675 57.518 28.9909C57.287 28.1473 56.63 27.4906 55.7905 27.095L54.938 28.9043ZM52.1339 29.2172C52.3795 28.9684 52.8131 28.7572 53.3684 28.6847C53.9163 28.6131 54.4849 28.6908 54.938 28.9043L55.7905 27.095C54.9491 26.6986 53.9879 26.5867 53.1092 26.7015C52.2377 26.8154 51.3475 27.1669 50.7104 27.8124L52.1339 29.2172ZM41.4312 37.3069C44.5132 36.045 47.7699 33.6394 52.1339 29.2172L50.7104 27.8124C46.4181 32.1618 43.3869 34.345 40.6734 35.456L41.4312 37.3069ZM31.2762 38.4669C35.5181 38.7489 38.4916 38.5104 41.4312 37.3069L40.6734 35.456C38.1385 36.4939 35.5148 36.7443 31.4089 36.4713L31.2762 38.4669ZM29.2375 39.3705C29.2566 39.2331 29.3757 38.9963 29.7612 38.7767C30.1367 38.5628 30.675 38.4269 31.2762 38.4669L31.4089 36.4713C30.4506 36.4076 29.5162 36.6145 28.7713 37.0389C28.0364 37.4576 27.3875 38.1544 27.2566 39.0946L29.2375 39.3705ZM30.8655 40.3737C30.2624 40.3336 29.7986 40.1307 29.5243 39.9008C29.254 39.6742 29.2217 39.4836 29.2375 39.3705L27.2566 39.0946C27.1223 40.0591 27.5863 40.8861 28.2397 41.4337C28.8891 41.9779 29.7764 42.3057 30.7328 42.3693L30.8655 40.3737ZM43.5658 38.8288C39.586 40.4582 35.5868 40.6876 30.8655 40.3737L30.7328 42.3693C35.5893 42.6922 39.9387 42.475 44.3236 40.6797L43.5658 38.8288ZM55.398 30.0211C51.0133 34.4642 47.4038 37.2574 43.5658 38.8288L44.3236 40.6797C48.5292 38.9577 52.3641 35.9428 56.8216 31.426L55.398 30.0211ZM1.99289 68.873L1.9991 68.8531L0.0896502 68.2581L0.0834329 68.278L1.99289 68.873ZM3.4173 68.7543L3.41161 68.7726L5.32106 69.3675L5.32675 69.3493L3.4173 68.7543ZM73.9213 7.3029L73.9143 7.31847L75.7398 8.13555L75.7467 8.11999L73.9213 7.3029Z" fill="#A1A1A1" mask="url(#path-1-outside-1_907_3388)"/>
</svg>
