<svg width="101" height="95" viewBox="0 0 101 95" fill="none" xmlns="http://www.w3.org/2000/svg">
<g filter="url(#filter0_d_907_3384)">
<mask id="path-1-outside-1_907_3384" maskUnits="userSpaceOnUse" x="3" y="0" width="95" height="87" fill="black">
<rect fill="white" x="3" width="95" height="87"/>
<path d="M50.3787 27.0918C33.3225 27.0918 19.4957 39.1329 19.4957 53.9864C19.4957 56.4963 19.8905 58.9259 20.629 61.2307C20.933 56.8275 25.1297 53.3384 30.2623 53.3384C35.5924 53.3384 39.9132 57.1012 39.9132 61.7429C39.9132 56.3023 45.146 53.3384 50.3787 53.3384C55.6114 53.3384 60.8442 56.3023 60.8442 61.7429C60.8442 57.1012 65.1651 53.3384 70.4951 53.3384C75.6277 53.3384 79.8244 56.8275 80.1284 61.2307C80.8669 58.9259 81.2617 56.4963 81.2617 53.9864C81.2617 39.1329 67.4349 27.0918 50.3787 27.0918Z"/>
<path d="M14.1647 17.5001L19.4956 25.541C21.8649 29.1147 18.9033 33.5819 14.1647 33.5819C9.42619 33.5819 6.4646 29.1147 8.83387 25.541L14.1647 17.5001Z"/>
<path d="M86.8353 17.8968L92.1661 25.9377C94.5354 29.5114 91.5738 33.9786 86.8353 33.9786C82.0967 33.9786 79.1351 29.5114 81.5044 25.9377L86.8353 17.8968Z"/>
<path d="M50.6851 4L56.016 12.0409C58.3853 15.6146 55.4237 20.0817 50.6851 20.0817C45.9466 20.0817 42.985 15.6146 45.3543 12.0409L50.6851 4Z"/>
</mask>
<path d="M44.658 81.6382C44.658 80.5336 43.7625 79.6382 42.658 79.6382C41.5534 79.6382 40.658 80.5336 40.658 81.6382H44.658ZM52.3787 53.3384C52.3787 52.2338 51.4833 51.3384 50.3787 51.3384C49.2741 51.3384 48.3787 52.2338 48.3787 53.3384H52.3787ZM48.3787 81.6382C48.3787 82.1395 47.8145 83 46.5183 83V87C49.4862 87 52.3787 84.8502 52.3787 81.6382H48.3787ZM46.5183 83C45.2222 83 44.658 82.1395 44.658 81.6382H40.658C40.658 84.8502 43.5504 87 46.5183 87V83ZM52.3787 81.6382V53.3384H48.3787V81.6382H52.3787ZM35.9132 61.7429C35.9132 63.9521 37.7041 65.7429 39.9132 65.7429C42.1224 65.7429 43.9132 63.9521 43.9132 61.7429H35.9132ZM56.8442 61.7429C56.8442 63.9521 58.635 65.7429 60.8442 65.7429C63.0533 65.7429 64.8442 63.9521 64.8442 61.7429H56.8442ZM20.629 61.2307L16.8197 62.4512C17.4052 64.2783 19.2054 65.4324 21.1101 65.2016C23.0148 64.9708 24.4873 63.4202 24.6195 61.5062L20.629 61.2307ZM80.1284 61.2307L76.1379 61.5062C76.2701 63.4202 77.7426 64.9708 79.6473 65.2016C81.552 65.4324 83.3522 64.2783 83.9377 62.4512L80.1284 61.2307ZM14.1647 17.5001L17.4986 15.2898C16.7576 14.1721 15.5058 13.5001 14.1647 13.5001C12.8237 13.5001 11.5719 14.1721 10.8309 15.2898L14.1647 17.5001ZM8.83387 25.541L5.5 23.3307H5.5L8.83387 25.541ZM19.4956 25.541L16.1617 27.7512L16.1617 27.7513L19.4956 25.541ZM86.8353 17.8968L90.1691 15.6866C89.4281 14.5688 88.1763 13.8968 86.8353 13.8968C85.4942 13.8968 84.2424 14.5688 83.5014 15.6866L86.8353 17.8968ZM81.5044 25.9377L84.8383 28.148V28.148L81.5044 25.9377ZM92.1661 25.9377L95.5 23.7274L92.1661 25.9377ZM50.6851 4L54.019 1.78973C53.278 0.672016 52.0262 2.38419e-07 50.6851 0C49.3441 0 48.0923 0.672015 47.3513 1.78973L50.6851 4ZM45.3543 12.0409L42.0204 9.8306V9.8306L45.3543 12.0409ZM56.016 12.0409L59.3499 9.8306L59.3499 9.8306L56.016 12.0409ZM23.4957 53.9864C23.4957 41.8436 34.9943 31.0918 50.3787 31.0918V23.0918C31.6507 23.0918 15.4957 36.4222 15.4957 53.9864H23.4957ZM50.3787 31.0918C65.7631 31.0918 77.2617 41.8436 77.2617 53.9864H85.2617C85.2617 36.4222 69.1067 23.0918 50.3787 23.0918V31.0918ZM30.2623 57.3384C33.9206 57.3384 35.9132 59.8119 35.9132 61.7429H43.9132C43.9132 54.3905 37.2642 49.3384 30.2623 49.3384V57.3384ZM64.8442 61.7429C64.8442 59.8119 66.8369 57.3384 70.4951 57.3384V49.3384C63.4933 49.3384 56.8442 54.3905 56.8442 61.7429H64.8442ZM24.6195 61.5062C24.7484 59.6386 26.7621 57.3384 30.2623 57.3384V49.3384C23.4973 49.3384 17.1175 54.0164 16.6385 60.9552L24.6195 61.5062ZM24.4382 60.0101C23.8234 58.0915 23.4957 56.0733 23.4957 53.9864H15.4957C15.4957 56.9193 15.9575 59.7603 16.8197 62.4512L24.4382 60.0101ZM70.4951 57.3384C73.9953 57.3384 76.009 59.6386 76.1379 61.5062L84.1189 60.9552C83.6399 54.0164 77.2601 49.3384 70.4951 49.3384V57.3384ZM77.2617 53.9864C77.2617 56.0733 76.934 58.0915 76.3192 60.0101L83.9377 62.4512C84.7999 59.7603 85.2617 56.9193 85.2617 53.9864H77.2617ZM43.9132 61.7429C43.9132 60.4789 44.4572 59.5169 45.5298 58.7401C46.6976 57.8945 48.4551 57.3384 50.3787 57.3384V49.3384C47.0696 49.3384 43.5944 50.2643 40.8375 52.2607C37.9856 54.3261 35.9132 57.5664 35.9132 61.7429H43.9132ZM50.3787 57.3384C52.3023 57.3384 54.0599 57.8945 55.2276 58.7401C56.3002 59.5169 56.8442 60.4789 56.8442 61.7429H64.8442C64.8442 57.5664 62.7718 54.3261 59.9199 52.2607C57.163 50.2643 53.6878 49.3384 50.3787 49.3384V57.3384ZM10.8309 19.7104L16.1617 27.7512L22.8295 23.3307L17.4986 15.2898L10.8309 19.7104ZM12.1677 27.7512L17.4986 19.7104L10.8309 15.2898L5.5 23.3307L12.1677 27.7512ZM14.1647 29.5819C13.072 29.5819 12.4283 29.0843 12.1677 28.6913C12.0371 28.4943 12.0023 28.332 12.0001 28.2247C11.9983 28.1354 12.0146 27.9823 12.1677 27.7512L5.5 23.3307C3.35725 26.5627 3.64737 30.3174 5.5 33.1118C7.31254 35.8458 10.519 37.5819 14.1647 37.5819V29.5819ZM16.1617 27.7513C16.3149 27.9823 16.3312 28.1354 16.3294 28.2247C16.3272 28.332 16.2923 28.4943 16.1617 28.6913C15.9012 29.0843 15.2575 29.5819 14.1647 29.5819V37.5819C17.8105 37.5819 21.0169 35.8458 22.8295 33.1118C24.6821 30.3174 24.9722 26.5628 22.8295 23.3307L16.1617 27.7513ZM83.5014 20.1071L88.8323 28.148L95.5 23.7274L90.1691 15.6866L83.5014 20.1071ZM84.8383 28.148L90.1691 20.1071L83.5014 15.6866L78.1705 23.7274L84.8383 28.148ZM86.8353 29.9786C85.7425 29.9786 85.0988 29.4811 84.8383 29.088C84.7077 28.891 84.6728 28.7287 84.6706 28.6214C84.6688 28.5321 84.6851 28.379 84.8383 28.148L78.1705 23.7274C76.0278 26.9595 76.3179 30.7141 78.1705 33.5085C79.9831 36.2425 83.1895 37.9786 86.8353 37.9786V29.9786ZM88.8323 28.148C88.9854 28.379 89.0017 28.5321 88.9999 28.6214C88.9977 28.7287 88.9629 28.891 88.8323 29.088C88.5717 29.4811 87.928 29.9786 86.8353 29.9786V37.9786C90.481 37.9786 93.6875 36.2425 95.5 33.5085C97.3526 30.7141 97.6428 26.9595 95.5 23.7274L88.8323 28.148ZM47.3513 6.21027L52.6821 14.2511L59.3499 9.8306L54.019 1.78973L47.3513 6.21027ZM48.6881 14.2511L54.019 6.21027L47.3513 1.78973L42.0204 9.8306L48.6881 14.2511ZM50.6851 16.0817C49.5924 16.0817 48.9487 15.5842 48.6881 15.1912C48.5575 14.9942 48.5227 14.8319 48.5205 14.7246C48.5187 14.6353 48.535 14.4822 48.6881 14.2511L42.0204 9.8306C39.8776 13.0626 40.1678 16.8173 42.0204 19.6117C43.8329 22.3457 47.0394 24.0817 50.6851 24.0817V16.0817ZM52.6821 14.2511C52.8353 14.4822 52.8516 14.6353 52.8498 14.7246C52.8476 14.8319 52.8127 14.9942 52.6821 15.1912C52.4216 15.5842 51.7779 16.0817 50.6851 16.0817V24.0817C54.3309 24.0817 57.5373 22.3457 59.3499 19.6117C61.2025 16.8173 61.4926 13.0626 59.3499 9.8306L52.6821 14.2511Z" fill="#A2A2A2" mask="url(#path-1-outside-1_907_3384)"/>
</g>
<defs>
<filter id="filter0_d_907_3384" x="0" y="0" width="101" height="95" filterUnits="userSpaceOnUse" color-interpolation-filters="sRGB">
<feFlood flood-opacity="0" result="BackgroundImageFix"/>
<feColorMatrix in="SourceAlpha" type="matrix" values="0 0 0 0 0 0 0 0 0 0 0 0 0 0 0 0 0 0 127 0" result="hardAlpha"/>
<feOffset dy="4"/>
<feGaussianBlur stdDeviation="2"/>
<feComposite in2="hardAlpha" operator="out"/>
<feColorMatrix type="matrix" values="0 0 0 0 0 0 0 0 0 0 0 0 0 0 0 0 0 0 0.25 0"/>
<feBlend mode="normal" in2="BackgroundImageFix" result="effect1_dropShadow_907_3384"/>
<feBlend mode="normal" in="SourceGraphic" in2="effect1_dropShadow_907_3384" result="shape"/>
</filter>
</defs>
</svg>
